<svg width="502" height="960" viewBox="0 0 502 960" fill="none" xmlns="http://www.w3.org/2000/svg">
<path d="M65.6677 839.183L65.8483 764.745L-3.58268 727.729L-73.1942 765.152L-73.3748 839.59L-3.94384 876.606M65.6677 839.183L-3.94384 876.606M65.6677 839.183L135.099 876.198L134.918 950.637L65.3065 988.059L-4.12443 951.044L-3.94384 876.606" stroke="white" stroke-opacity="0.08" stroke-width="4" stroke-linecap="round" stroke-linejoin="round"/>
<path d="M206.828 837.627L207.007 762.838L137.191 725.65L67.1954 763.251L67.0163 838.04L136.833 875.228L206.828 837.627Z" stroke="white" stroke-opacity="0.08" stroke-width="4" stroke-linecap="round" stroke-linejoin="round"/>
<path d="M68.6677 609.495L68.8483 535.057L-0.582679 498.042L-70.1942 535.465L-70.3748 609.903L-0.943843 646.918M68.6677 609.495L-0.943843 646.918M68.6677 609.495L138.099 646.511L137.918 720.949L68.3065 758.372L-1.12443 721.356L-0.943843 646.918" stroke="white" stroke-opacity="0.08" stroke-width="4" stroke-linecap="round" stroke-linejoin="round"/>
<path d="M209.828 607.94L210.007 533.15L140.191 495.962L70.1954 533.563L70.0163 608.353L139.833 645.541L209.828 607.94Z" stroke="white" stroke-opacity="0.08" stroke-width="4" stroke-linecap="round" stroke-linejoin="round"/>
<path d="M278.668 721.995L278.848 647.557L209.417 610.542L139.806 647.965L139.625 722.403L209.056 759.418M278.668 721.995L209.056 759.418M278.668 721.995L348.099 759.011L347.918 833.449L278.306 870.872L208.876 833.856L209.056 759.418" stroke="white" stroke-opacity="0.08" stroke-width="4" stroke-linecap="round" stroke-linejoin="round"/>
<path d="M419.828 720.44L420.007 645.65L350.191 608.462L280.195 646.063L280.016 720.853L349.833 758.041L419.828 720.44Z" stroke="white" stroke-opacity="0.08" stroke-width="4" stroke-linecap="round" stroke-linejoin="round"/>
<path d="M278.668 951.683L278.848 877.245L209.417 840.229L139.806 877.652L139.625 952.09L209.056 989.106M278.668 951.683L209.056 989.106M278.668 951.683L348.099 988.698L347.918 1063.14L278.306 1100.56L208.876 1063.54L209.056 989.106" stroke="white" stroke-opacity="0.08" stroke-width="4" stroke-linecap="round" stroke-linejoin="round"/>
<path d="M419.828 950.127L420.007 875.338L350.191 838.15L280.195 875.751L280.016 950.54L349.833 987.728L419.828 950.127Z" stroke="white" stroke-opacity="0.08" stroke-width="4" stroke-linecap="round" stroke-linejoin="round"/>
<path d="M72.6677 379.808L72.8483 305.37L3.41732 268.354L-66.1942 305.777L-66.3748 380.215L3.05616 417.231M72.6677 379.808L3.05616 417.231M72.6677 379.808L142.099 416.823L141.918 491.262L72.3065 528.684L2.87557 491.669L3.05616 417.231" stroke="white" stroke-opacity="0.08" stroke-width="4" stroke-linecap="round" stroke-linejoin="round"/>
<path d="M213.828 378.252L214.007 303.463L144.191 266.275L74.1954 303.876L74.0163 378.665L143.833 415.853L213.828 378.252Z" stroke="white" stroke-opacity="0.08" stroke-width="4" stroke-linecap="round" stroke-linejoin="round"/>
<path d="M285.668 263.558L285.848 189.12L216.417 152.104L146.806 189.527L146.625 263.965L216.056 300.981M285.668 263.558L216.056 300.981M285.668 263.558L355.099 300.573L354.918 375.012L285.306 412.434L215.876 375.419L216.056 300.981" stroke="white" stroke-opacity="0.08" stroke-width="4" stroke-linecap="round" stroke-linejoin="round"/>
<path d="M426.828 262.002L427.007 187.213L357.191 150.025L287.195 187.626L287.016 262.415L356.833 299.603L426.828 262.002Z" stroke="white" stroke-opacity="0.08" stroke-width="4" stroke-linecap="round" stroke-linejoin="round"/>
<path d="M290.668 40.4329L290.848 -34.0053L221.417 -71.0207L151.806 -33.5979L151.625 40.8403L221.056 77.8557M290.668 40.4329L221.056 77.8557M290.668 40.4329L360.099 77.4484L359.918 151.887L290.306 189.309L220.876 152.294L221.056 77.8557" stroke="white" stroke-opacity="0.08" stroke-width="4" stroke-linecap="round" stroke-linejoin="round"/>
<path d="M431.828 38.877L432.007 -35.9124L362.191 -73.1004L292.195 -35.4991L292.016 39.2903L361.833 76.4783L431.828 38.877Z" stroke="white" stroke-opacity="0.08" stroke-width="4" stroke-linecap="round" stroke-linejoin="round"/>
<path d="M76.6677 151.058L76.8483 76.6197L7.41732 39.6042L-62.1942 77.027L-62.3748 151.465L7.05616 188.481M76.6677 151.058L7.05616 188.481M76.6677 151.058L146.099 188.073L145.918 262.512L76.3065 299.934L6.87557 262.919L7.05616 188.481" stroke="white" stroke-opacity="0.08" stroke-width="4" stroke-linecap="round" stroke-linejoin="round"/>
<path d="M217.828 149.502L218.007 74.7127L148.191 37.5246L78.1954 75.1259L78.0163 149.915L147.833 187.103L217.828 149.502Z" stroke="white" stroke-opacity="0.08" stroke-width="4" stroke-linecap="round" stroke-linejoin="round"/>
<path d="M282.668 492.308L282.848 417.87L213.417 380.854L143.806 418.277L143.625 492.715L213.056 529.731M282.668 492.308L213.056 529.731M282.668 492.308L352.099 529.323L351.918 603.762L282.306 641.184L212.876 604.169L213.056 529.731" stroke="white" stroke-opacity="0.08" stroke-width="4" stroke-linecap="round" stroke-linejoin="round"/>
<path d="M423.828 490.752L424.007 415.963L354.191 378.775L284.195 416.376L284.016 491.165L353.833 528.353L423.828 490.752Z" stroke="white" stroke-opacity="0.08" stroke-width="4" stroke-linecap="round" stroke-linejoin="round"/>
<g clip-path="url(#clip0_0_1)">
<path d="M105.023 226.023C105.238 226.228 105.491 226.388 105.767 226.495C106.044 226.601 106.339 226.651 106.636 226.643C106.932 226.634 107.224 226.566 107.494 226.444C107.764 226.322 108.007 226.147 108.209 225.93C108.411 225.713 108.568 225.458 108.671 225.18C108.773 224.902 108.82 224.606 108.807 224.31C108.794 224.013 108.723 223.723 108.597 223.454C108.471 223.186 108.293 222.945 108.074 222.746L96.9472 212.392C96.7344 212.18 96.4811 212.013 96.2024 211.901C95.9237 211.789 95.6253 211.734 95.3249 211.74C95.0246 211.745 94.7284 211.812 94.4542 211.934C94.1799 212.057 93.933 212.233 93.7283 212.453C93.5236 212.673 93.3653 212.932 93.2627 213.214C93.1601 213.496 93.1154 213.796 93.1312 214.096C93.1471 214.396 93.2231 214.69 93.3548 214.96C93.4865 215.23 93.6712 215.471 93.8979 215.668L105.023 226.023Z" fill="white" fill-opacity="0.49"/>
<path fill-rule="evenodd" clip-rule="evenodd" d="M92.0302 234.718C96.1441 237.094 101.033 237.737 105.622 236.508C110.21 235.278 114.122 232.276 116.497 228.162C118.873 224.049 119.516 219.16 118.287 214.571C117.057 209.983 114.055 206.07 109.941 203.695C105.828 201.32 100.939 200.676 96.35 201.906C91.7615 203.135 87.8494 206.137 85.4742 210.251C83.099 214.365 82.4554 219.254 83.6849 223.843C84.9143 228.431 87.9163 232.343 92.0302 234.718ZM94.2691 230.841C95.7969 231.723 97.4834 232.295 99.2324 232.525C100.981 232.756 102.759 232.639 104.463 232.183C106.167 231.726 107.764 230.938 109.164 229.864C110.563 228.79 111.737 227.451 112.62 225.924C113.502 224.396 114.074 222.709 114.304 220.96C114.535 219.211 114.418 217.434 113.962 215.73C113.505 214.026 112.717 212.429 111.643 211.029C110.569 209.629 109.23 208.455 107.703 207.573C104.617 205.792 100.95 205.309 97.509 206.231C94.0676 207.153 91.1335 209.405 89.3521 212.49C87.5707 215.576 87.088 219.242 88.0101 222.684C88.9322 226.125 91.1836 229.059 94.2691 230.841ZM72.9162 190.708C73.3767 187.013 69.3493 184.29 66.0714 186.076L40.4159 200.046C37.4564 201.656 37.321 205.818 40.1675 207.743L62.228 222.667C65.0715 224.593 68.9084 222.936 69.3232 219.602L72.9162 190.708ZM68.2425 189.995C68.2319 189.999 68.2216 190.003 68.2117 190.008L42.5996 203.956L42.6012 203.962C42.6053 203.969 42.6104 203.976 42.6161 203.981C42.6343 204.002 42.6551 204.02 42.6781 204.035L64.7406 218.96C64.7771 218.986 64.8026 218.996 64.8142 219.003C64.8377 219.011 64.8631 219.012 64.8873 219.006L68.4726 190.156L68.476 190.132C68.453 190.097 68.4227 190.067 68.387 190.045C68.3484 190.017 68.3037 189.999 68.2567 189.993L68.2498 189.991L68.2425 189.995ZM78.6403 264.112C82.1898 264.423 85.7173 263.311 88.447 261.021C91.1766 258.731 92.8848 255.45 93.1956 251.901C93.3495 250.143 93.1557 248.373 92.6253 246.69C92.0949 245.007 91.2383 243.446 90.1044 242.094C87.8143 239.364 84.5336 237.656 80.9842 237.345L54.2182 235.005C52.4608 234.851 50.6903 235.045 49.0078 235.575C47.3253 236.105 45.7638 236.962 44.4124 238.096C43.0609 239.23 41.946 240.619 41.1314 242.184C40.3167 243.748 39.8183 245.458 39.6644 247.216C39.5106 248.973 39.7044 250.744 40.2349 252.426C40.7653 254.109 41.6219 255.67 42.7558 257.022C43.8897 258.373 45.2787 259.488 46.8434 260.303C48.4082 261.117 50.1181 261.616 51.8755 261.769L78.6403 264.112ZM53.8271 239.466C52.6491 239.351 51.46 239.471 50.3286 239.818C49.1972 240.166 48.1459 240.734 47.2355 241.49C46.3251 242.247 45.5736 243.176 45.0245 244.225C44.4754 245.273 44.1396 246.42 44.0365 247.599C43.9334 248.778 44.065 249.966 44.4237 251.094C44.7825 252.222 45.3612 253.267 46.1266 254.17C46.8919 255.073 47.8286 255.815 48.8825 256.354C49.9364 256.892 51.0866 257.217 52.2666 257.308L63.2578 258.269L64.8202 240.428L53.8271 239.466ZM67.7191 258.66L69.2795 240.818L80.593 241.807C81.7767 241.893 82.9313 242.214 83.9899 242.751C85.0484 243.288 85.9897 244.03 86.759 244.934C87.5283 245.837 88.1103 246.885 88.4711 248.016C88.832 249.146 88.9645 250.337 88.8609 251.52C88.7574 252.702 88.4199 253.852 87.868 254.903C87.3161 255.954 86.5609 256.884 85.6462 257.64C84.7315 258.397 83.6757 258.964 82.5399 259.308C81.4042 259.653 80.2113 259.768 79.0306 259.648L67.7191 258.66Z" fill="white" fill-opacity="0.49"/>
</g>
<g clip-path="url(#clip1_0_1)">
<path d="M312.023 787.023C312.238 787.228 312.491 787.388 312.767 787.495C313.044 787.601 313.339 787.651 313.636 787.643C313.932 787.634 314.224 787.566 314.494 787.444C314.764 787.322 315.007 787.147 315.209 786.93C315.411 786.713 315.568 786.458 315.671 786.18C315.773 785.902 315.82 785.606 315.807 785.31C315.794 785.013 315.723 784.723 315.597 784.454C315.471 784.186 315.293 783.945 315.074 783.746L303.947 773.392C303.734 773.18 303.481 773.013 303.202 772.901C302.924 772.789 302.625 772.734 302.325 772.74C302.025 772.745 301.728 772.811 301.454 772.934C301.18 773.056 300.933 773.233 300.728 773.453C300.524 773.673 300.365 773.931 300.263 774.214C300.16 774.496 300.115 774.796 300.131 775.096C300.147 775.396 300.223 775.69 300.355 775.96C300.486 776.23 300.671 776.471 300.898 776.668L312.023 787.023Z" fill="white" fill-opacity="0.49"/>
<path fill-rule="evenodd" clip-rule="evenodd" d="M299.03 795.718C303.144 798.094 308.033 798.737 312.622 797.508C317.21 796.278 321.122 793.276 323.497 789.162C325.873 785.048 326.516 780.16 325.287 775.571C324.057 770.983 321.055 767.07 316.941 764.695C312.828 762.32 307.939 761.676 303.35 762.906C298.762 764.135 294.849 767.137 292.474 771.251C290.099 775.365 289.455 780.254 290.685 784.843C291.914 789.431 294.916 793.343 299.03 795.718ZM301.269 791.841C302.797 792.723 304.483 793.295 306.232 793.525C307.981 793.756 309.759 793.639 311.463 793.183C313.167 792.726 314.764 791.938 316.164 790.864C317.563 789.79 318.737 788.451 319.62 786.924C320.502 785.396 321.074 783.709 321.304 781.96C321.535 780.211 321.418 778.434 320.962 776.73C320.505 775.026 319.717 773.429 318.643 772.029C317.569 770.629 316.23 769.455 314.703 768.573C311.617 766.792 307.95 766.309 304.509 767.231C301.068 768.153 298.133 770.405 296.352 773.49C294.571 776.576 294.088 780.242 295.01 783.684C295.932 787.125 298.184 790.059 301.269 791.841ZM279.916 751.708C280.377 748.013 276.349 745.29 273.071 747.076L247.416 761.046C244.456 762.656 244.321 766.818 247.167 768.743L269.228 783.667C272.071 785.593 275.908 783.936 276.323 780.602L279.916 751.708ZM275.243 750.995C275.232 750.999 275.222 751.003 275.212 751.008L249.6 764.956L249.601 764.962C249.605 764.969 249.61 764.976 249.616 764.981C249.634 765.002 249.655 765.02 249.678 765.035L271.741 779.96C271.777 779.986 271.803 779.996 271.814 780.003C271.838 780.011 271.863 780.012 271.887 780.006L275.473 751.156L275.476 751.132C275.453 751.097 275.423 751.067 275.387 751.045C275.348 751.017 275.304 750.999 275.257 750.993L275.25 750.991L275.243 750.995ZM285.64 825.112C289.19 825.423 292.717 824.311 295.447 822.021C298.177 819.731 299.885 816.45 300.196 812.901C300.349 811.143 300.156 809.373 299.625 807.69C299.095 806.007 298.238 804.446 297.104 803.094C294.814 800.364 291.534 798.656 287.984 798.345L261.218 796.005C259.461 795.851 257.69 796.045 256.008 796.575C254.325 797.105 252.764 797.962 251.412 799.096C250.061 800.23 248.946 801.619 248.131 803.184C247.317 804.748 246.818 806.458 246.664 808.216C246.511 809.973 246.704 811.744 247.235 813.426C247.765 815.109 248.622 816.67 249.756 818.022C250.89 819.373 252.279 820.488 253.843 821.303C255.408 822.117 257.118 822.616 258.875 822.769L285.64 825.112ZM260.827 800.466C259.649 800.351 258.46 800.471 257.329 800.818C256.197 801.166 255.146 801.734 254.235 802.49C253.325 803.247 252.574 804.176 252.025 805.225C251.475 806.273 251.14 807.42 251.036 808.599C250.933 809.778 251.065 810.966 251.424 812.094C251.782 813.222 252.361 814.267 253.127 815.17C253.892 816.073 254.829 816.815 255.882 817.354C256.936 817.892 258.087 818.217 259.267 818.308L270.258 819.269L271.82 801.428L260.827 800.466ZM274.719 819.66L276.28 801.818L287.593 802.807C288.777 802.893 289.931 803.214 290.99 803.751C292.048 804.288 292.99 805.03 293.759 805.934C294.528 806.837 295.11 807.885 295.471 809.016C295.832 810.146 295.964 811.337 295.861 812.52C295.757 813.702 295.42 814.852 294.868 815.903C294.316 816.954 293.561 817.884 292.646 818.64C291.732 819.397 290.676 819.964 289.54 820.308C288.404 820.653 287.211 820.768 286.031 820.648L274.719 819.66Z" fill="white" fill-opacity="0.49"/>
</g>
<g clip-path="url(#clip2_0_1)">
<path d="M392.023 17.0233C392.238 17.2281 392.491 17.3884 392.767 17.4947C393.044 17.601 393.339 17.6513 393.636 17.6426C393.932 17.6339 394.224 17.5665 394.494 17.4441C394.764 17.3218 395.007 17.147 395.209 16.93C395.411 16.713 395.568 16.458 395.671 16.1798C395.773 15.9016 395.82 15.6059 395.807 15.3096C395.794 15.0134 395.723 14.7226 395.597 14.4542C395.471 14.1857 395.293 13.9449 395.074 13.7458L383.947 3.39227C383.734 3.18025 383.481 3.01322 383.202 2.90113C382.924 2.78905 382.625 2.7342 382.325 2.73985C382.025 2.7455 381.728 2.81153 381.454 2.93402C381.18 3.0565 380.933 3.23293 380.728 3.45281C380.524 3.67268 380.365 3.9315 380.263 4.21385C380.16 4.49619 380.115 4.7963 380.131 5.09628C380.147 5.39627 380.223 5.69 380.355 5.95999C380.486 6.22998 380.671 6.47071 380.898 6.66783L392.023 17.0233Z" fill="white" fill-opacity="0.49"/>
<path fill-rule="evenodd" clip-rule="evenodd" d="M379.03 25.7184C383.144 28.0936 388.033 28.7373 392.622 27.5078C397.21 26.2783 401.122 23.2764 403.497 19.1624C405.873 15.0485 406.516 10.1595 405.287 5.57102C404.057 0.982525 401.055 -2.92963 396.941 -5.30481C392.828 -7.68 387.939 -8.32364 383.35 -7.09416C378.762 -5.86467 374.849 -2.86277 372.474 1.25117C370.099 5.36511 369.455 10.2541 370.685 14.8426C371.914 19.4311 374.916 23.3432 379.03 25.7184ZM381.269 21.8405C382.797 22.7226 384.483 23.2951 386.232 23.5253C387.981 23.7556 389.759 23.6391 391.463 23.1825C393.167 22.7259 394.764 21.9382 396.164 20.8643C397.563 19.7904 398.737 18.4513 399.62 16.9235C400.502 15.3958 401.074 13.7092 401.304 11.9602C401.535 10.2112 401.418 8.43397 400.962 6.72997C400.505 5.02598 399.717 3.4286 398.643 2.02904C397.569 0.629477 396.23 -0.544856 394.703 -1.42691C391.617 -3.2083 387.95 -3.69103 384.509 -2.76892C381.068 -1.8468 378.133 0.404624 376.352 3.49008C374.571 6.57553 374.088 10.2423 375.01 13.6836C375.932 17.125 378.184 20.0591 381.269 21.8405ZM359.916 -18.2922C360.377 -21.9869 356.349 -24.7103 353.071 -22.9239L327.416 -8.95435C324.456 -7.34351 324.321 -3.18186 327.167 -1.25663L349.228 13.6672C352.071 15.5932 355.908 13.9357 356.323 10.6023L359.916 -18.2922ZM355.243 -19.005C355.232 -19.0014 355.222 -18.997 355.212 -18.9918L329.6 -5.04371L329.601 -5.03758C329.605 -5.03067 329.61 -5.0243 329.616 -5.01864C329.634 -4.99802 329.655 -4.97991 329.678 -4.96476L351.741 9.96016C351.777 9.98643 351.803 9.99598 351.814 10.0027C351.838 10.0111 351.863 10.0122 351.887 10.0061L355.473 -18.8438L355.476 -18.8676C355.453 -18.9029 355.423 -18.9328 355.387 -18.9552C355.348 -18.9827 355.304 -19.0006 355.257 -19.0072L355.25 -19.0086L355.243 -19.005ZM365.64 55.1122C369.19 55.423 372.717 54.3111 375.447 52.021C378.177 49.7309 379.885 46.4503 380.196 42.9008C380.349 41.1433 380.156 39.3726 379.625 37.69C379.095 36.0073 378.238 34.4457 377.104 33.0941C374.814 30.3644 371.534 28.6563 367.984 28.3455L341.218 26.0047C339.461 25.8508 337.69 26.0447 336.008 26.5751C334.325 27.1055 332.764 27.9621 331.412 29.096C330.061 30.2299 328.946 31.6189 328.131 33.1836C327.317 34.7484 326.818 36.4583 326.664 38.2157C326.511 39.9731 326.704 41.7436 327.235 43.4261C327.765 45.1086 328.622 46.6701 329.756 48.0216C330.89 49.373 332.279 50.4879 333.843 51.3025C335.408 52.1172 337.118 52.6156 338.875 52.7695L365.64 55.1122ZM340.827 30.4659C339.649 30.3511 338.46 30.4709 337.329 30.8184C336.197 31.1659 335.146 31.7342 334.235 32.4905C333.325 33.2468 332.574 34.176 332.025 35.2245C331.475 36.273 331.14 37.42 331.036 38.599C330.933 39.7781 331.065 40.9659 331.424 42.0938C331.782 43.2217 332.361 44.2673 333.127 45.1701C333.892 46.073 334.829 46.8152 335.882 47.3538C336.936 47.8924 338.087 48.2168 339.267 48.3082L350.258 49.2688L351.82 31.4277L340.827 30.4659ZM354.719 49.66L356.28 31.8177L367.593 32.8067C368.777 32.8934 369.931 33.2144 370.99 33.7512C372.048 34.288 372.99 35.0298 373.759 35.9336C374.528 36.8373 375.11 37.885 375.471 39.0157C375.832 40.1463 375.964 41.3374 375.861 42.5198C375.757 43.7021 375.42 44.8521 374.868 45.9028C374.316 46.9535 373.561 47.8841 372.646 48.6404C371.732 49.3967 370.676 49.9636 369.54 50.3083C368.404 50.6529 367.211 50.7684 366.031 50.6479L354.719 49.66Z" fill="white" fill-opacity="0.49"/>
</g>
<g clip-path="url(#clip3_0_1)">
<path d="M109.023 451.023C109.238 451.228 109.491 451.388 109.767 451.495C110.044 451.601 110.339 451.651 110.636 451.643C110.932 451.634 111.224 451.566 111.494 451.444C111.764 451.322 112.007 451.147 112.209 450.93C112.411 450.713 112.568 450.458 112.671 450.18C112.773 449.902 112.82 449.606 112.807 449.31C112.794 449.013 112.723 448.723 112.597 448.454C112.471 448.186 112.293 447.945 112.074 447.746L100.947 437.392C100.734 437.18 100.481 437.013 100.202 436.901C99.9237 436.789 99.6253 436.734 99.3249 436.74C99.0246 436.745 98.7284 436.812 98.4542 436.934C98.1799 437.056 97.933 437.233 97.7283 437.453C97.5236 437.673 97.3653 437.931 97.2627 438.214C97.1601 438.496 97.1154 438.796 97.1312 439.096C97.1471 439.396 97.2231 439.69 97.3548 439.96C97.4865 440.23 97.6712 440.471 97.8979 440.668L109.023 451.023Z" fill="white" fill-opacity="0.49"/>
<path fill-rule="evenodd" clip-rule="evenodd" d="M96.0302 459.718C100.144 462.094 105.033 462.737 109.622 461.508C114.21 460.278 118.122 457.276 120.497 453.162C122.873 449.048 123.516 444.16 122.287 439.571C121.057 434.983 118.055 431.07 113.941 428.695C109.828 426.32 104.939 425.676 100.35 426.906C95.7615 428.135 91.8494 431.137 89.4742 435.251C87.099 439.365 86.4554 444.254 87.6849 448.843C88.9143 453.431 91.9163 457.343 96.0302 459.718ZM98.2691 455.841C99.7969 456.723 101.483 457.295 103.232 457.525C104.981 457.756 106.759 457.639 108.463 457.183C110.167 456.726 111.764 455.938 113.164 454.864C114.563 453.79 115.737 452.451 116.62 450.924C117.502 449.396 118.074 447.709 118.304 445.96C118.535 444.211 118.418 442.434 117.962 440.73C117.505 439.026 116.717 437.429 115.643 436.029C114.569 434.629 113.23 433.455 111.703 432.573C108.617 430.792 104.95 430.309 101.509 431.231C98.0676 432.153 95.1335 434.405 93.3521 437.49C91.5707 440.576 91.088 444.242 92.0101 447.684C92.9322 451.125 95.1836 454.059 98.2691 455.841ZM76.9162 415.708C77.3767 412.013 73.3493 409.29 70.0714 411.076L44.4159 425.046C41.4564 426.656 41.321 430.818 44.1675 432.743L66.228 447.667C69.0715 449.593 72.9084 447.936 73.3232 444.602L76.9162 415.708ZM72.2425 414.995C72.2319 414.999 72.2216 415.003 72.2117 415.008L46.5996 428.956L46.6012 428.962C46.6053 428.969 46.6104 428.976 46.6161 428.981C46.6343 429.002 46.6551 429.02 46.6781 429.035L68.7406 443.96C68.7771 443.986 68.8026 443.996 68.8142 444.003C68.8377 444.011 68.8631 444.012 68.8873 444.006L72.4726 415.156L72.476 415.132C72.453 415.097 72.4227 415.067 72.387 415.045C72.3484 415.017 72.3037 414.999 72.2567 414.993L72.2498 414.991L72.2425 414.995ZM82.6403 489.112C86.1898 489.423 89.7173 488.311 92.447 486.021C95.1766 483.731 96.8848 480.45 97.1956 476.901C97.3495 475.143 97.1557 473.373 96.6253 471.69C96.0949 470.007 95.2383 468.446 94.1044 467.094C91.8143 464.364 88.5336 462.656 84.9842 462.345L58.2182 460.005C56.4608 459.851 54.6903 460.045 53.0078 460.575C51.3253 461.105 49.7638 461.962 48.4124 463.096C47.0609 464.23 45.946 465.619 45.1314 467.184C44.3167 468.748 43.8183 470.458 43.6644 472.216C43.5106 473.973 43.7044 475.744 44.2349 477.426C44.7653 479.109 45.6219 480.67 46.7558 482.022C47.8897 483.373 49.2787 484.488 50.8434 485.303C52.4082 486.117 54.1181 486.616 55.8755 486.769L82.6403 489.112ZM57.8271 464.466C56.6491 464.351 55.46 464.471 54.3286 464.818C53.1972 465.166 52.1459 465.734 51.2355 466.49C50.3251 467.247 49.5736 468.176 49.0245 469.225C48.4754 470.273 48.1396 471.42 48.0365 472.599C47.9334 473.778 48.065 474.966 48.4237 476.094C48.7825 477.222 49.3612 478.267 50.1266 479.17C50.8919 480.073 51.8286 480.815 52.8825 481.354C53.9364 481.892 55.0866 482.217 56.2666 482.308L67.2578 483.269L68.8202 465.428L57.8271 464.466ZM71.7191 483.66L73.2795 465.818L84.593 466.807C85.7767 466.893 86.9313 467.214 87.9899 467.751C89.0484 468.288 89.9897 469.03 90.759 469.934C91.5283 470.837 92.1103 471.885 92.4711 473.016C92.832 474.146 92.9645 475.337 92.8609 476.52C92.7574 477.702 92.4199 478.852 91.868 479.903C91.3161 480.954 90.5609 481.884 89.6462 482.64C88.7315 483.397 87.6757 483.964 86.5399 484.308C85.4042 484.653 84.2113 484.768 83.0306 484.648L71.7191 483.66Z" fill="white" fill-opacity="0.49"/>
</g>
<defs>
<clipPath id="clip0_0_1">
<rect width="107.468" height="107.468" fill="white" transform="translate(50.7338 154) rotate(30)"/>
</clipPath>
<clipPath id="clip1_0_1">
<rect width="107.468" height="107.468" fill="white" transform="translate(257.734 715) rotate(30)"/>
</clipPath>
<clipPath id="clip2_0_1">
<rect width="107.468" height="107.468" fill="white" transform="translate(337.734 -55) rotate(30)"/>
</clipPath>
<clipPath id="clip3_0_1">
<rect width="107.468" height="107.468" fill="white" transform="translate(54.7338 379) rotate(30)"/>
</clipPath>
</defs>
</svg>
