<svg width="154" height="154" viewBox="0 0 154 154" fill="none" xmlns="http://www.w3.org/2000/svg">
<circle cx="77" cy="77" r="77" fill="#015F79"/>
<path fill-rule="evenodd" clip-rule="evenodd" d="M67.3333 29.6667C65.4105 29.6667 63.5665 30.4305 62.2068 31.7902C60.8472 33.1498 60.0833 34.9939 60.0833 36.9167H52.8333C50.9105 36.9167 49.0664 37.6805 47.7068 39.0402C46.3472 40.3998 45.5833 42.2439 45.5833 44.1667V111.833C45.5833 113.756 46.3472 115.6 47.7068 116.96C49.0664 118.32 50.9105 119.083 52.8333 119.083H81.8333V114.25H52.8333C52.1924 114.25 51.5777 113.995 51.1245 113.542C50.6713 113.089 50.4167 112.474 50.4167 111.833V44.1667C50.4167 43.5257 50.6713 42.9111 51.1245 42.4578C51.5777 42.0046 52.1924 41.75 52.8333 41.75H60.0833C60.0833 43.6728 60.8472 45.5169 62.2068 46.8765C63.5665 48.2362 65.4105 49 67.3333 49H86.6667C88.5895 49 90.4336 48.2362 91.7932 46.8765C93.1528 45.5169 93.9167 43.6728 93.9167 41.75H101.167C101.808 41.75 102.422 42.0046 102.876 42.4578C103.329 42.9111 103.583 43.5257 103.583 44.1667V80.4167H108.417V44.1667C108.417 42.2439 107.653 40.3998 106.293 39.0402C104.934 37.6805 103.089 36.9167 101.167 36.9167H93.9167C93.9167 34.9939 93.1528 33.1498 91.7932 31.7902C90.4336 30.4305 88.5895 29.6667 86.6667 29.6667H67.3333ZM64.9167 36.9167C64.9167 36.2757 65.1713 35.6611 65.6245 35.2078C66.0777 34.7546 66.6924 34.5 67.3333 34.5H86.6667C87.3076 34.5 87.9223 34.7546 88.3755 35.2078C88.8287 35.6611 89.0833 36.2757 89.0833 36.9167V41.75C89.0833 42.391 88.8287 43.0056 88.3755 43.4589C87.9223 43.9121 87.3076 44.1667 86.6667 44.1667H67.3333C66.6924 44.1667 66.0777 43.9121 65.6245 43.4589C65.1713 43.0056 64.9167 42.391 64.9167 41.75V36.9167ZM74.5833 65.9167V58.6667H79.4167V65.9167H86.6667V70.75H79.4167V78H74.5833V70.75H67.3333V65.9167H74.5833ZM84.25 87.6667C84.25 87.0257 84.5046 86.4111 84.9578 85.9578C85.411 85.5046 86.0257 85.25 86.6667 85.25H115.667C116.308 85.25 116.922 85.5046 117.376 85.9578C117.829 86.4111 118.083 87.0257 118.083 87.6667V104.073C118.083 106.858 117.396 109.6 116.082 112.055C114.768 114.51 112.868 116.603 110.551 118.148L102.508 123.513C102.111 123.778 101.644 123.919 101.167 123.919C100.689 123.919 100.223 123.778 99.8254 123.513L91.7828 118.148C89.466 116.604 87.5664 114.511 86.2523 112.056C84.9383 109.601 84.2505 106.86 84.25 104.076V87.6667ZM89.0833 90.0834V104.073C89.0836 106.063 89.5749 108.021 90.5138 109.775C91.4526 111.529 92.81 113.024 94.4653 114.127L101.167 118.6L107.868 114.129C109.523 113.026 110.881 111.531 111.82 109.777C112.758 108.024 113.25 106.065 113.25 104.076V90.0834H89.0833ZM100.459 108.709L110.125 99.0419L106.708 95.6248L98.75 103.583L95.6253 100.458L92.2081 103.875L97.0414 108.709C97.4946 109.162 98.1092 109.416 98.75 109.416C99.3908 109.416 100.005 109.162 100.459 108.709Z" fill="white"/>
</svg>
