<svg width="438" height="438" viewBox="0 0 438 438" fill="none" xmlns="http://www.w3.org/2000/svg">
<path d="M355.875 273.75C346.631 273.787 337.675 276.973 330.485 282.784L301.125 265.852V243.87C310.257 240.641 317.955 234.288 322.856 225.933C327.757 217.578 329.547 207.759 327.909 198.212C326.271 188.665 321.31 180.005 313.904 173.761C306.499 167.518 297.124 164.094 287.437 164.094C277.751 164.094 268.376 167.518 260.971 173.761C253.565 180.005 248.604 188.665 246.966 198.212C245.328 207.759 247.118 217.578 252.019 225.933C256.92 234.288 264.618 240.641 273.75 243.87V265.852L244.39 282.811C237.204 276.991 228.248 273.794 219 273.75C210.42 273.692 202.035 276.305 195.008 281.227C187.98 286.149 182.658 293.135 179.779 301.218C176.901 309.301 176.609 318.079 178.944 326.335C181.279 334.591 186.125 341.916 192.811 347.294C199.496 352.671 207.689 355.836 216.253 356.348C224.818 356.86 233.329 354.694 240.608 350.151C247.886 345.608 253.571 338.913 256.873 330.994C260.175 323.075 260.931 314.325 259.036 305.957L287.437 289.545L315.839 305.943C314.008 314.241 314.798 322.902 318.1 330.732C321.403 338.561 327.054 345.173 334.274 349.653C341.494 354.133 349.928 356.262 358.409 355.744C366.891 355.227 375.003 352.089 381.625 346.764C388.247 341.439 393.052 334.19 395.378 326.017C397.704 317.844 397.435 309.151 394.609 301.137C391.783 293.124 386.539 286.185 379.601 281.279C372.662 276.374 364.372 273.743 355.875 273.75ZM219 328.5C216.293 328.5 213.647 327.697 211.396 326.193C209.145 324.689 207.39 322.552 206.354 320.05C205.318 317.549 205.047 314.797 205.575 312.142C206.104 309.487 207.407 307.048 209.321 305.134C211.236 303.22 213.675 301.916 216.33 301.388C218.985 300.86 221.737 301.131 224.238 302.167C226.739 303.203 228.877 304.957 230.381 307.208C231.885 309.459 232.687 312.105 232.687 314.812C232.687 318.443 231.245 321.924 228.679 324.491C226.112 327.058 222.63 328.5 219 328.5ZM287.437 191.625C290.145 191.625 292.791 192.428 295.042 193.932C297.293 195.436 299.047 197.573 300.083 200.075C301.119 202.576 301.39 205.328 300.862 207.983C300.334 210.638 299.03 213.077 297.116 214.991C295.202 216.905 292.763 218.209 290.108 218.737C287.453 219.265 284.701 218.994 282.2 217.958C279.698 216.922 277.561 215.168 276.057 212.917C274.553 210.666 273.75 208.02 273.75 205.312C273.75 201.682 275.192 198.201 277.759 195.634C280.326 193.067 283.807 191.625 287.437 191.625ZM355.875 328.5C353.168 328.5 350.522 327.697 348.271 326.193C346.02 324.689 344.265 322.552 343.229 320.05C342.193 317.549 341.922 314.797 342.451 312.142C342.979 309.487 344.282 307.048 346.196 305.134C348.111 303.22 350.55 301.916 353.205 301.388C355.86 300.86 358.612 301.131 361.113 302.167C363.614 303.203 365.752 304.957 367.256 307.208C368.76 309.459 369.562 312.105 369.562 314.812C369.562 318.443 368.12 321.924 365.554 324.491C362.987 327.058 359.505 328.5 355.875 328.5Z" fill="#33DBEF"/>
<path d="M219 424.312C179.082 424.269 140.811 408.392 112.584 380.166C84.3577 351.939 68.481 313.668 68.4375 273.75V87.3536L218.822 12.0724L361.993 83.7538L349.743 108.227L218.822 42.6776L95.8125 104.271V273.75C95.81 296.629 102.179 319.056 114.205 338.518C126.231 357.981 143.44 373.71 163.903 383.943C184.365 394.176 207.273 398.508 230.06 396.454C252.846 394.4 274.61 386.041 292.912 372.314L309.338 394.2C283.319 413.829 251.592 424.404 219 424.312Z" fill="#33DBEF"/>
</svg>
