<svg version="1.1" id="Layer_1" xmlns="http://www.w3.org/2000/svg" xmlns:xlink="http://www.w3.org/1999/xlink" x="0px" y="0px"
	 width="100%" viewBox="0 0 3999 4000" enable-background="new 0 0 3999 4000" xml:space="preserve">
<path fill="#E1F0ED" opacity="1.000000" stroke="none" 
	d="
M2564.000000,4002.000000 
	C1709.333374,4002.000000 855.666687,4002.000000 2.000000,4002.000000 
	C2.000000,2668.666748 2.000000,1335.333374 2.000000,2.000000 
	C1335.333374,2.000000 2668.666748,2.000000 4002.000000,2.000000 
	C4002.000000,1335.333374 4002.000000,2668.666748 4002.000000,4002.000000 
	C3523.000000,4002.000000 3044.000000,4002.000000 2564.000000,4002.000000 
z"/>
<path fill="#79C9BC" opacity="1.000000" stroke="none" 
	d="
M1336.144043,1280.191650 
	C1359.808838,1230.316284 1387.315674,1183.607178 1420.102173,1140.086060 
	C1447.415283,1103.830566 1477.295654,1069.785034 1510.664551,1039.015137 
	C1557.857178,995.497925 1609.511841,958.154114 1666.175659,927.670288 
	C1731.529175,892.511658 1800.657471,868.311768 1873.420044,854.470337 
	C1895.267456,850.314331 1917.352051,847.378235 1939.608398,845.657715 
	C1963.504761,843.810425 1987.419800,841.867798 2011.347534,842.431641 
	C2077.802734,843.997559 2143.152832,853.142883 2206.945557,872.500854 
	C2249.780518,885.499146 2291.165283,902.042236 2330.819092,922.710815 
	C2380.897949,948.813416 2427.498047,980.145020 2470.397461,1017.005249 
	C2491.654053,1035.269409 2512.167480,1054.282104 2531.229004,1074.773926 
	C2570.821777,1117.337769 2605.522705,1163.588745 2634.936035,1213.809204 
	C2665.203125,1265.487549 2689.166504,1319.926025 2707.187744,1376.979980 
	C2719.226562,1415.094360 2728.218506,1453.942993 2734.158203,1493.500488 
	C2738.358398,1521.471680 2741.345703,1549.496094 2742.620361,1577.799927 
	C2743.339355,1593.772705 2744.085205,1609.730225 2743.809570,1625.688110 
	C2743.216309,1660.043335 2738.171631,1693.911133 2731.010498,1727.447632 
	C2716.938721,1793.346924 2696.344238,1857.290649 2672.977051,1920.419922 
	C2651.468506,1978.526001 2627.652100,2035.675537 2602.495117,2092.268799 
	C2589.509521,2121.480957 2575.808594,2150.376953 2562.272217,2179.341797 
	C2535.463867,2236.705322 2506.874268,2293.197266 2477.956787,2349.510010 
	C2445.701416,2412.323730 2412.171875,2474.467041 2378.010498,2536.272705 
	C2341.761719,2601.854736 2304.811523,2667.032715 2267.043701,2731.748291 
	C2225.921875,2802.211670 2184.078369,2872.242188 2141.514648,2941.848145 
	C2099.469727,3010.604980 2056.635254,3078.861328 2013.251587,3146.776367 
	C2010.270874,3151.442383 2007.660156,3156.502197 2003.547607,3160.159180 
	C1999.514893,3158.527100 1998.301025,3155.183105 1996.562012,3152.472900 
	C1955.736328,3088.849609 1915.417969,3024.904053 1875.897461,2960.462891 
	C1840.209839,2902.271484 1804.830200,2843.889160 1770.400146,2784.939941 
	C1743.193848,2738.359131 1715.830688,2691.867188 1689.002808,2645.068604 
	C1668.300781,2608.956543 1648.328491,2572.426025 1628.017944,2536.089355 
	C1595.026123,2477.065430 1563.121094,2417.449219 1532.104370,2357.375000 
	C1504.133667,2303.200439 1476.763916,2248.711914 1450.563843,2193.640625 
	C1435.824219,2162.658447 1421.327026,2131.571533 1407.226440,2100.297607 
	C1383.957642,2048.688721 1362.032593,1996.515259 1341.732544,1943.664307 
	C1329.313965,1911.332764 1317.642700,1878.734253 1307.032227,1845.761719 
	C1291.014648,1795.986084 1277.267578,1745.611084 1268.658081,1693.986450 
	C1262.729614,1658.438477 1260.566040,1622.544556 1262.386108,1586.541870 
	C1265.314209,1528.624023 1273.229492,1471.403198 1287.899414,1415.208130 
	C1299.108154,1372.271240 1313.641968,1330.509277 1331.933960,1290.065918 
	C1333.304688,1287.035034 1334.539429,1283.942627 1336.144043,1280.191650 
z"/>
<path fill="#FEFFFE" opacity="1.000000" stroke="none" 
	d="
M1446.017944,1644.661621 
	C1444.144531,1625.406006 1443.674805,1606.756592 1444.283813,1588.098877 
	C1446.655640,1515.439331 1461.447144,1445.523560 1490.696899,1378.802246 
	C1521.762451,1307.938354 1565.555664,1246.047607 1622.153442,1193.375244 
	C1676.958618,1142.371094 1739.520142,1103.773560 1809.840820,1077.793091 
	C1852.860718,1061.899170 1897.187256,1051.449341 1942.697510,1046.655884 
	C1977.500000,1042.990356 2012.440186,1042.874146 2047.455200,1045.476074 
	C2089.533447,1048.602905 2130.498779,1056.751709 2170.701416,1069.218506 
	C2231.449463,1088.056396 2287.106934,1116.868408 2337.925781,1155.021118 
	C2410.966797,1209.857300 2467.334961,1278.506592 2507.022705,1360.727783 
	C2531.956787,1412.384644 2548.360352,1466.704590 2556.144043,1523.585938 
	C2560.394775,1554.650513 2562.762939,1585.842896 2561.700928,1617.195801 
	C2559.286865,1688.464966 2544.894531,1757.107910 2516.598633,1822.763184 
	C2484.027588,1898.337158 2436.988525,1963.512207 2375.923584,2018.447876 
	C2322.320801,2066.670410 2261.490967,2103.134033 2193.619629,2127.763916 
	C2153.060303,2142.482666 2111.303955,2152.043213 2068.564453,2157.464111 
	C2059.659912,2158.593262 2050.667725,2159.033447 2040.854980,2159.810547 
	C2039.107910,2159.902344 2038.220825,2159.957275 2036.666382,2160.016602 
	C2014.625244,2160.678467 1993.249878,2160.677002 1970.937134,2160.066895 
	C1969.110962,2160.010498 1968.222168,2159.975830 1966.668457,2159.879150 
	C1914.933960,2156.522949 1865.258789,2146.419189 1816.996094,2129.365723 
	C1751.623047,2106.266113 1692.621338,2072.156494 1639.989258,2027.031860 
	C1577.645264,1973.580811 1529.089600,1909.647949 1494.826294,1835.016357 
	C1472.062256,1785.431885 1456.760986,1733.606445 1449.690918,1679.416992 
	C1448.401245,1669.531738 1446.592529,1659.714478 1446.249146,1648.840820 
	C1446.155273,1647.082886 1446.075195,1646.204590 1446.017944,1644.661621 
z"/>
<path fill="#D0ECE8" opacity="1.000000" stroke="none" 
	d="
M1445.676758,1644.350586 
	C1447.234131,1644.826416 1447.900024,1645.820068 1446.624268,1647.621460 
	C1445.055054,1647.127686 1444.560669,1646.094971 1445.676758,1644.350586 
z"/>
<path fill="#BDE5DD" opacity="1.000000" stroke="none" 
	d="
M1966.310791,2160.216797 
	C1966.976196,2158.718994 1968.056763,2158.270752 1969.687500,2159.655273 
	C1969.035767,2161.181641 1967.955933,2161.652832 1966.310791,2160.216797 
z"/>
<path fill="#BDE5DD" opacity="1.000000" stroke="none" 
	d="
M2036.343628,2160.391113 
	C2036.856079,2158.837402 2037.882324,2158.268555 2039.646484,2159.487793 
	C2039.149170,2161.064697 2038.126465,2161.656982 2036.343628,2160.391113 
z"/>
<path fill="#BDE5DD" opacity="1.000000" stroke="none" 
	d="
M2005.878784,2099.945801 
	C1938.783325,2098.997314 1874.708984,2087.509766 1813.549316,2061.803467 
	C1769.755127,2043.396118 1729.163452,2019.604492 1692.031494,1989.728516 
	C1670.135254,1972.111206 1650.228882,1952.503052 1631.307007,1931.975342 
	C1606.671265,1905.248779 1586.360107,1875.229492 1568.511841,1843.511719 
	C1545.989868,1803.488647 1529.619019,1761.103394 1519.228760,1716.463623 
	C1513.360840,1691.253418 1509.271240,1665.752563 1507.469971,1639.793823 
	C1506.477539,1625.490112 1505.994141,1611.241577 1506.015503,1596.961182 
	C1506.067749,1561.966675 1510.493042,1527.465820 1517.963989,1493.286011 
	C1528.282593,1446.077026 1546.008423,1401.710693 1569.317749,1359.575562 
	C1585.940796,1329.526855 1605.925903,1301.785645 1628.582642,1275.867310 
	C1640.013062,1262.791382 1652.065552,1250.394531 1664.612549,1238.503906 
	C1692.736938,1211.849976 1724.130249,1189.550537 1757.598755,1170.047241 
	C1784.761597,1154.218384 1813.483765,1141.883179 1843.067505,1131.627808 
	C1869.130615,1122.592773 1895.926147,1116.286133 1923.201538,1111.655640 
	C1955.861206,1106.110840 1988.661743,1105.636108 2021.603394,1105.783203 
	C2039.613892,1105.863647 2057.431152,1107.716553 2075.165527,1110.302490 
	C2102.819092,1114.334839 2129.856934,1121.005859 2156.494629,1129.612305 
	C2201.496094,1144.151855 2243.295898,1164.914551 2282.452148,1191.359131 
	C2315.750732,1213.847778 2345.734863,1240.173462 2372.544189,1269.888428 
	C2410.058594,1311.468872 2439.323730,1358.463257 2461.345947,1410.047241 
	C2476.581299,1445.733887 2486.970947,1482.780396 2493.524658,1520.866333 
	C2496.045166,1535.512329 2497.814697,1550.364746 2498.543213,1565.369995 
	C2499.122559,1577.302612 2499.882080,1589.234131 2500.064453,1601.198975 
	C2500.593262,1635.905762 2496.502441,1670.160400 2489.615479,1704.082886 
	C2481.097412,1746.039917 2467.035156,1786.187500 2447.733154,1824.360229 
	C2429.516602,1860.387085 2407.447754,1893.904419 2380.968262,1924.566040 
	C2365.901611,1942.012329 2349.814941,1958.442383 2332.828125,1973.833862 
	C2304.153320,1999.815430 2272.385986,2021.669434 2238.242920,2040.046875 
	C2199.018555,2061.159424 2157.726318,2076.740967 2114.389404,2086.824219 
	C2095.323242,2091.260498 2075.981201,2094.165039 2056.490234,2096.409912 
	C2039.957397,2098.314209 2023.331421,2098.034180 2005.878784,2099.945801 
z"/>
<path fill="#79C9BC" opacity="1.000000" stroke="none" 
	d="
M1891.859619,1348.000000 
	C1891.858643,1324.669312 1891.820435,1302.338379 1891.874512,1280.007812 
	C1891.898315,1270.230103 1891.984009,1270.135132 1902.011475,1270.130737 
	C1969.337036,1270.101074 2036.662476,1270.100952 2103.988037,1270.130615 
	C2114.069580,1270.135132 2114.127686,1270.230591 2114.131104,1281.009033 
	C2114.150635,1344.001709 2114.140625,1406.994385 2114.140381,1469.987061 
	C2114.140381,1472.320190 2114.120361,1474.653442 2114.144775,1476.986328 
	C2114.275391,1489.485229 2114.839600,1490.093018 2127.090820,1490.095825 
	C2190.416748,1490.110474 2253.742920,1490.102905 2317.068848,1490.103027 
	C2319.068604,1490.103027 2321.068359,1490.093262 2323.068115,1490.104858 
	C2334.033691,1490.168335 2334.087646,1490.170166 2334.090332,1501.103271 
	C2334.108154,1568.428833 2334.100342,1635.754272 2334.095947,1703.079834 
	C2334.095947,1705.078735 2334.032227,1707.077637 2334.009277,1709.076660 
	C2333.971191,1712.385254 2332.197510,1713.884766 2328.996826,1713.913452 
	C2326.331055,1713.937256 2323.665283,1713.988770 2320.999512,1713.989014 
	C2257.340332,1713.993286 2193.680908,1713.992432 2130.021729,1713.992432 
	C2128.021973,1713.992432 2126.021973,1713.972656 2124.022461,1713.996460 
	C2114.257568,1714.113037 2114.161865,1714.117188 2114.157227,1724.125977 
	C2114.126709,1789.451782 2114.153320,1854.777466 2114.131104,1920.103271 
	C2114.125977,1935.234619 2115.400146,1933.963745 2099.989502,1933.969116 
	C2034.663696,1933.991943 1969.338013,1933.983643 1904.012207,1933.973999 
	C1891.898926,1933.972168 1891.867676,1933.945190 1891.865601,1922.102661 
	C1891.854126,1856.776855 1891.864380,1791.451172 1891.853638,1726.125366 
	C1891.851685,1714.027588 1891.822998,1713.998779 1879.974121,1713.996948 
	C1814.648315,1713.986816 1749.322632,1713.996948 1683.996826,1713.987915 
	C1671.934082,1713.986206 1671.905518,1713.960327 1671.903809,1702.080200 
	C1671.893799,1635.421265 1671.898926,1568.762329 1671.899048,1502.103394 
	C1671.899048,1501.436768 1671.892456,1500.770142 1671.900513,1500.103638 
	C1672.020142,1490.226562 1672.020508,1490.125244 1681.934204,1490.120361 
	C1747.260010,1490.088379 1812.585693,1490.107178 1877.911499,1490.099854 
	C1891.433960,1490.098267 1891.838745,1489.729736 1891.848511,1475.985596 
	C1891.878662,1433.657104 1891.859619,1391.328491 1891.859619,1348.000000 
z"/>
</svg>