<svg width="154" height="154" viewBox="0 0 154 154" fill="none" xmlns="http://www.w3.org/2000/svg">
<circle cx="77" cy="77" r="77" fill="#015F79"/>
<path d="M114.954 112.729L41.9 39.3041L37.0792 44.125L62.6667 69.7125L48.2042 84.175L55.9917 91.9625L44.4958 103.458V113.842L61.1833 97.1541L68.9708 104.942L83.4333 90.4791L110.133 117.179L114.954 112.729ZM74.5333 89.3666L69.3417 94.5583L58.9583 84.175L68.2292 74.9041L73.4208 80.0958L69.3417 84.175L74.5333 89.3666ZM77.1292 65.2625L71.9375 60.0708L84.9167 47.4625L92.7042 55.25L97.8958 50.0583L92.7042 44.8666L97.8958 39.675L113.842 55.25L108.65 60.4416L103.087 55.25L97.8958 60.4416L105.683 68.2291L93.075 81.2083L82.6917 70.825L84.9167 68.2291L90.1083 73.4208L95.3 68.2291L84.9167 57.8458L77.1292 65.2625Z" fill="white"/>
</svg>
