<svg width="154" height="154" viewBox="0 0 154 154" fill="none" xmlns="http://www.w3.org/2000/svg">
<circle cx="77" cy="77" r="77" fill="#015F79"/>
<path fill-rule="evenodd" clip-rule="evenodd" d="M78 58.5834C78 47.3072 87.1405 38.1667 98.4167 38.1667C109.693 38.1667 118.833 47.3072 118.833 58.5834C118.833 69.8595 109.693 79 98.4167 79H80.0417C79.5002 79 78.9809 78.7849 78.598 78.402C78.2151 78.0191 78 77.4998 78 76.9584V58.5834ZM44.8801 48.375C43.3767 48.3777 41.9356 48.9761 40.8725 50.0392C39.8095 51.1023 39.211 52.5434 39.2083 54.0468C39.2083 89.2553 67.7447 117.792 102.953 117.792C104.457 117.789 105.898 117.191 106.961 116.127C108.024 115.064 108.622 113.623 108.625 112.12V99.4534C108.622 97.95 108.024 96.509 106.961 95.4459C105.898 94.3828 104.457 93.7844 102.953 93.7817C98.7727 93.7854 94.6183 93.123 90.6461 91.8196C89.6489 91.4847 88.5781 91.4347 87.554 91.6753C86.53 91.9159 85.5935 92.4375 84.8498 93.1814L77.9306 100.101C69.0547 95.2439 61.7558 87.9464 56.8973 79.0715L63.8186 72.1502C64.5607 71.4132 65.085 70.4858 65.334 69.47C65.5829 68.4541 65.5467 67.3893 65.2294 66.3927L65.2253 66.3784L65.2212 66.3641C63.9125 62.3896 63.2488 58.2312 63.2551 54.0468C63.2524 52.5434 62.654 51.1023 61.5909 50.0392C60.5278 48.9761 59.0867 48.3777 57.5833 48.375H44.8801ZM96.375 68.7917V60.625H88.2083V56.5417H96.375V48.375H100.458V56.5417H108.625V60.625H100.458V68.7917H96.375Z" fill="white"/>
</svg>
