<svg width="154" height="154" viewBox="0 0 154 154" fill="none" xmlns="http://www.w3.org/2000/svg">
<circle cx="77" cy="77" r="77" fill="#015F79"/>
<path d="M123.312 84.625V102.844C123.312 107.812 120.303 112.119 115.622 114.438L109.938 117.087L104.253 114.438C99.5719 112.45 96.5625 107.812 96.5625 102.844V84.625H123.312ZM130 78H89.875V102.844C89.875 110.131 94.2219 117.087 101.244 120.4L109.938 124.375L118.631 120.4C125.653 117.087 130 110.463 130 102.844V78Z" fill="white"/>
<path d="M76.5 107.812H48.0781C34.3688 107.812 23 96.55 23 82.9688C23 70.7125 32.0281 60.775 43.7312 58.4563C46.7406 42.8875 60.45 31.625 76.5 31.625C94.8906 31.625 109.938 46.5312 109.938 64.75H103.25C103.25 50.175 91.2125 38.25 76.5 38.25C62.7906 38.25 51.4219 48.5188 49.75 61.7688V64.75H46.7406C37.0437 65.4125 29.6875 73.3625 29.6875 82.9688C29.6875 92.9062 38.0469 101.188 48.0781 101.188H76.5V107.812Z" fill="white"/>
</svg>
